<svg width="48" height="38" viewBox="0 0 48 38" fill="none" xmlns="http://www.w3.org/2000/svg">
<path d="M20.5773 0.0648007C20.3147 0.0993465 19.7136 0.223712 19.2438 0.341168C16.3143 1.06663 13.9375 2.1721 12.0168 3.70593C11.4641 4.14812 9.48804 6.05505 9.48804 6.14487C9.48804 6.17942 9.57095 6.20705 9.67458 6.20705C9.81277 6.20705 10.0822 5.98596 10.8975 5.1845C12.459 3.65757 13.4124 2.98738 15.3263 2.05464C16.6321 1.419 18.698 0.728081 20.0591 0.472442C21.2682 0.244439 24.0664 0.265167 25.4897 0.506988C26.9199 0.755718 28.3155 1.17718 29.6628 1.76446C32.1087 2.83538 33.373 3.6783 34.9138 5.23286C35.7705 6.10342 36.4407 6.98779 36.9658 7.94816C37.2353 8.43872 37.3251 8.55617 37.4564 8.55617C37.6636 8.55617 37.6291 8.43181 37.2145 7.69253C35.7913 5.1845 33.4836 3.14629 30.5679 1.81973C28.2326 0.755718 26.5399 0.265167 24.4533 0.0648007C23.5758 -0.0250185 21.282 -0.0181094 20.5773 0.0648007Z" fill="black"/>
<path d="M9.48802 7.24345C8.52074 7.41618 7.74691 7.66491 6.82799 8.10709C3.46322 9.72384 0.844646 12.9159 0.119183 16.2737C-0.0397277 17.0061 -0.0397277 18.2498 0.119183 18.8854C0.485369 20.3225 1.39738 21.4211 2.57885 21.8356C3.21449 22.0636 4.47196 22.0636 5.16979 21.8425C5.87452 21.6214 6.46871 21.2414 7.10436 20.6127C8.35492 19.376 9.55711 17.013 9.55711 15.7832C9.55711 15.5137 9.53638 15.4654 9.42584 15.4654C9.3222 15.4654 9.26693 15.5552 9.17711 15.8592C8.85928 16.9508 8.03709 18.5676 7.33236 19.5072C6.64144 20.4123 5.46688 21.2138 4.53414 21.4072C3.34577 21.656 2.20575 21.0618 1.61156 19.8872C0.851555 18.381 1.07265 16.3014 2.21957 14.2217C3.71195 11.5064 5.88143 9.35074 8.25128 8.21764C9.28074 7.72018 9.86802 7.582 11.0633 7.54054C12.6317 7.47836 13.8823 7.75473 14.4764 8.27982C14.9532 8.69437 15.1052 9.11583 15.1121 10.0071C15.119 11.2093 14.8634 12.066 13.8477 14.2217C13.0532 15.9145 11.7888 18.2083 10.4829 20.3363C10.0684 21.0134 9.3222 22.5818 9.10801 23.2244C8.52074 24.9931 8.97674 26.6444 10.2273 27.2593C10.552 27.4113 10.7386 27.4528 11.2706 27.4735C12.079 27.508 12.5419 27.4182 13.2535 27.0659C14.0481 26.6789 14.7874 26.0709 16.335 24.5233C17.8619 22.9894 18.4285 22.3331 19.8034 20.4883C20.7154 19.2792 20.978 18.9821 20.8191 19.3483C20.7845 19.4381 20.4114 20.3432 19.9969 21.3727C18.5667 24.9033 17.5234 27.1764 16.3557 29.3182L16.1692 29.6637H13.4677C11.2291 29.6637 10.628 29.6844 9.93712 29.7881C8.02327 30.0713 6.79344 30.3615 5.72252 30.783C4.43051 31.2943 3.75341 31.7088 3.09013 32.4066C1.61156 33.9474 1.86029 35.8958 3.64286 36.7456C5.62579 37.6853 8.60365 37.4849 11.2499 36.2274C13.7855 35.0252 15.499 33.4845 17.019 31.0248C17.4405 30.3408 17.4612 30.3201 17.6685 30.3546C20.0867 30.7484 21.8209 30.8659 22.3598 30.6794C22.8711 30.4928 23.2165 30.0437 22.9264 29.9332C22.8711 29.9124 22.65 29.9677 22.4289 30.0506C22.0834 30.1888 21.9107 30.2095 21.13 30.2026C20.3354 30.2026 17.8688 29.947 17.779 29.8572C17.7583 29.8433 17.8205 29.6983 17.9103 29.5393C19.0158 27.5702 20.2041 24.848 22.0143 20.0945C23.3616 16.5639 24.3358 14.809 25.6209 13.6137C26.4017 12.8882 27.3551 12.4253 28.585 12.1766C29.3933 12.0108 31.2726 11.9762 32.461 12.1075C33.6356 12.2319 36.0952 12.6257 36.1781 12.7017C36.2127 12.7293 36.0607 12.9781 35.8534 13.2544C35.0243 14.3184 34.3058 15.645 33.6494 17.2963C33.0345 18.8578 32.8134 19.5349 31.8323 22.9825C30.561 27.4666 29.9806 29.1524 29.1032 30.8866C28.5297 32.0266 28.0322 32.759 27.2999 33.5328C26.5951 34.279 26.2359 34.5623 25.5449 34.9078C24.8609 35.2463 24.3496 35.3707 23.6104 35.3707C22.726 35.3707 22.0213 35.1012 21.3994 34.5139C21.1438 34.2859 20.9158 34.3067 20.8467 34.5692C20.7154 35.0874 21.7034 35.8612 22.8089 36.0961C24.2598 36.4001 26.146 35.8889 27.6246 34.7972C28.4191 34.2099 29.4486 33.1252 29.9875 32.3237C30.5057 31.5292 31.321 29.9884 31.6665 29.111C32.0465 28.1644 32.6199 26.4786 32.9861 25.2487C34.6236 19.7421 35.3352 17.7247 36.3785 15.6381C36.9312 14.5257 37.6567 13.3512 37.9745 13.061C38.1404 12.9021 38.1611 12.9021 38.8244 12.9711C40.1233 13.1024 40.9662 13.1232 42.0648 13.0472C44.0062 12.9228 45.4019 12.5428 46.4175 11.8657C47.067 11.4304 47.4401 11.002 47.751 10.3526C47.9652 9.9173 47.9997 9.76529 47.9997 9.35074C48.0066 8.78419 47.8754 8.46637 47.6336 8.43182C47.4194 8.39728 47.3503 8.51473 47.3503 8.9431C47.3503 9.73075 46.611 10.6497 45.5539 11.1817C44.4139 11.7551 42.9699 11.9555 40.9317 11.8173C39.5982 11.7206 39.1975 11.6722 36.5029 11.2162C35.4941 11.0504 34.2989 10.8639 33.8428 10.8017C32.7512 10.6497 30.0428 10.5875 29.0686 10.6911C27.0995 10.8984 25.5864 11.5962 24.2736 12.909C23.5827 13.6068 23.0853 14.2839 22.4013 15.4654C20.5012 18.761 18.4561 21.4971 16.107 23.9015C14.1586 25.8982 12.763 26.8033 11.8026 26.7066C11.2706 26.6513 10.9873 26.4579 10.7593 25.9949C10.5866 25.6426 10.5797 25.5735 10.6142 24.9793C10.6349 24.5233 10.704 24.1778 10.856 23.7564C11.2982 22.4989 12.4935 20.1014 13.5644 18.3327C14.9394 16.0665 15.9412 14.1112 16.3488 12.909C16.7841 11.617 16.8947 10.1384 16.6183 9.36456C16.183 8.16928 15.119 7.49218 13.219 7.2089C12.2793 7.06381 10.4069 7.08454 9.48802 7.24345ZM15.8445 30.251C15.8445 30.3892 14.5524 32.379 14.131 32.8903C13.1982 34.0372 11.844 35.1496 10.6764 35.7369C9.57784 36.2896 8.02327 36.6765 6.9109 36.6765C5.37706 36.6765 4.07814 36.1031 3.81559 35.3154C3.77413 35.1841 3.75341 34.8663 3.76723 34.6107C3.81559 33.747 4.35451 32.9663 5.38397 32.2823C6.76581 31.3634 9.39129 30.5895 12.0099 30.327C12.4313 30.2855 12.8666 30.2372 12.9772 30.2233C13.5161 30.1612 15.8445 30.1888 15.8445 30.251Z" fill="black"/>
<path d="M40.1693 15.7023C40.1494 15.7241 40.1959 16.0116 40.2755 16.3471C40.4083 16.9483 40.4083 17.1182 40.4348 27.404L40.4547 37.8511L40.6206 37.838L40.7866 37.8249V27.7526C40.7866 21.1916 40.76 17.4885 40.7202 17.1226C40.6405 16.517 40.4879 15.7895 40.4215 15.7154C40.3751 15.6631 40.2092 15.6588 40.1693 15.7023Z" fill="black"/>
<path d="M26.1322 20.9996C25.2202 21.1378 24.4809 21.9876 24.4809 22.8996C24.4809 23.0723 24.5569 23.4454 24.6537 23.7356C24.7504 24.0258 24.8195 24.2676 24.8126 24.2745C24.7988 24.2884 24.5086 24.4818 24.1562 24.7167C22.9609 25.5113 22.5878 26.2091 22.8296 27.1764C23.1129 28.3095 24.5155 28.5789 26.1115 27.7982C26.3879 27.6669 26.6297 27.5564 26.6573 27.5564C26.685 27.5564 26.8439 27.6808 27.0097 27.8328C27.4588 28.2473 27.8872 28.2888 28.1152 27.9364C28.2879 27.6738 28.1981 27.5288 27.8941 27.5909C27.6868 27.6255 27.6108 27.6048 27.4726 27.4735C27.1272 27.1557 27.1341 27.1004 27.5555 26.6789C27.9839 26.2436 28.1981 25.9189 28.4606 25.2764C28.5574 25.0345 28.7301 24.7236 28.8475 24.5785C28.9581 24.4404 29.0341 24.2884 29.0064 24.2469C28.9581 24.164 27.4657 24.1433 27.3413 24.2262C27.2999 24.2538 27.2377 24.3713 27.217 24.4956L27.1686 24.7167L27.6384 24.7374L28.1083 24.7582L28.0875 24.9931C28.0806 25.1244 27.977 25.4076 27.8595 25.6218C27.6315 26.0571 27.0719 26.7273 26.9406 26.7273C26.8301 26.7273 26.2911 25.8153 25.8904 24.9654C25.7246 24.6062 25.5864 24.2953 25.5864 24.2814C25.5864 24.2607 25.773 24.1363 26.001 23.9982C27.1341 23.3072 27.597 22.6301 27.4795 21.8425C27.3897 21.2207 26.8577 20.889 26.1322 20.9996ZM26.7541 21.656C27.0373 22.0152 26.913 22.7614 26.4984 23.1552C26.3119 23.3349 25.538 23.8254 25.4413 23.8254C25.4137 23.8254 25.3377 23.6596 25.2824 23.4523C24.9646 22.3745 25.4206 21.4763 26.2842 21.4763C26.5537 21.4763 26.6366 21.504 26.7541 21.656ZM25.31 25.1865C25.4413 25.4698 25.7453 26.0364 25.9802 26.4371C26.4777 27.2731 26.4984 27.1833 25.697 27.5909C24.5638 28.1644 23.6518 27.7153 23.6518 26.5753C23.6518 26.1469 23.8315 25.6978 24.1493 25.3316C24.322 25.1382 24.9439 24.6545 25.0199 24.6545C25.0475 24.6614 25.1788 24.8964 25.31 25.1865Z" fill="black"/>
</svg>
