<svg width="24" height="24" viewBox="0 0 24 24" fill="none" xmlns="http://www.w3.org/2000/svg">
<path d="M2 20V15.3C2 14.9 2.10833 14.5373 2.325 14.212C2.54167 13.8867 2.83333 13.641 3.2 13.475L6 12.225V10.225C6 9.84167 6.1 9.496 6.3 9.188C6.5 8.88 6.76667 8.634 7.1 8.45L11 6.5V5H10C9.71667 5 9.47933 4.904 9.288 4.712C9.09667 4.52 9.00067 4.28267 9 4C8.99933 3.71733 9.09533 3.48 9.288 3.288C9.48067 3.096 9.718 3 10 3H11V2C11 1.71667 11.096 1.47933 11.288 1.288C11.48 1.09667 11.7173 1.00067 12 1C12.2827 0.999333 12.5203 1.09533 12.713 1.288C12.9057 1.48067 13.0013 1.718 13 2V3H14C14.2833 3 14.521 3.096 14.713 3.288C14.905 3.48 15.0007 3.71733 15 4C14.9993 4.28267 14.9033 4.52033 14.712 4.713C14.5207 4.90567 14.2833 5.00133 14 5H13V6.5L16.9 8.45C17.2333 8.63333 17.5 8.87933 17.7 9.188C17.9 9.49667 18 9.84233 18 10.225V12.225L20.8 13.475C21.1667 13.6417 21.4583 13.8877 21.675 14.213C21.8917 14.5383 22 14.9007 22 15.3V20C22 20.55 21.8043 21.021 21.413 21.413C21.0217 21.805 20.5507 22.0007 20 22H14C13.7167 22 13.4793 21.904 13.288 21.712C13.0967 21.52 13.0007 21.2827 13 21V18C13 17.7167 12.904 17.4793 12.712 17.288C12.52 17.0967 12.2827 17.0007 12 17C11.7173 16.9993 11.48 17.0953 11.288 17.288C11.096 17.4807 11 17.718 11 18V21C11 21.2833 10.904 21.521 10.712 21.713C10.52 21.905 10.2827 22.0007 10 22H4C3.45 22 2.97933 21.8043 2.588 21.413C2.19667 21.0217 2.00067 20.5507 2 20ZM4 20H9V17.95C9 17.1 9.29167 16.3793 9.875 15.788C10.4583 15.1967 11.1667 14.9007 12 14.9C12.8333 14.8993 13.5417 15.1953 14.125 15.788C14.7083 16.3807 15 17.1013 15 17.95V20H20V15.2L16 13.4V10.05L12 8L8 10.05V13.4L4 15.2V20ZM12 13.5C12.4167 13.5 12.771 13.3543 13.063 13.063C13.355 12.7717 13.5007 12.4173 13.5 12C13.4993 11.5827 13.3537 11.2287 13.063 10.938C12.7723 10.6473 12.418 10.5013 12 10.5C11.582 10.4987 11.228 10.6447 10.938 10.938C10.648 11.2313 10.502 11.5853 10.5 12C10.498 12.4147 10.644 12.769 10.938 13.063C11.232 13.357 11.586 13.5027 12 13.5Z" fill="black"/>
</svg>
