<svg width="24" height="24" viewBox="0 0 24 24" fill="none" xmlns="http://www.w3.org/2000/svg">
<path d="M8.5 22C11.5376 22 14 19.5376 14 16.5C14 13.4624 11.5376 11 8.5 11C5.46243 11 3 13.4624 3 16.5C3 19.5376 5.46243 22 8.5 22Z" stroke="black" stroke-width="1.5" stroke-linecap="round" stroke-linejoin="round"/>
<path d="M15.5 22C18.5376 22 21 19.5376 21 16.5C21 13.4624 18.5376 11 15.5 11C12.4624 11 10 13.4624 10 16.5C10 19.5376 12.4624 22 15.5 22Z" stroke="black" stroke-width="1.5" stroke-linecap="round" stroke-linejoin="round"/>
<path d="M12 9C12 9 16 7.147 16 4.139C16 2.958 15.158 2 14 2C13.053 2 12.421 2.412 12 3.235C11.579 2.412 10.947 2 10 2C8.842 2 8 2.958 8 4.139C8 7.147 12 9 12 9Z" stroke="black" stroke-width="1.5" stroke-linejoin="round"/>
</svg>
